/* XPM */
static char *id_000387_output[] = {
/* columns rows colors chars-per-pixel */
"70 46 256 2 ",
"   c #E3C1F0",
".  c #C1D3B4",
"X  c #C1CDC1",
"o  c #F2C2FF",
"O  c #C2FEC2",
"+  c #FFC1FB",
"@  c #C1C7A3",
"#  c #BDB698",
"$  c #7F70C2",
"%  c #716F6A",
"&  c #68716D",
"*  c #6AC267",
"=  c #66635F",
"-  c #7F512A",
";  c #303130",
":  c #2F2D2E",
">  c #2DC22C",
",  c #292DC2",
"<  c #323644",
"1  c #485E5A",
"2  c #2CC665",
"3  c #C26468",
"4  c #80C1E2",
"5  c #C2FFC1",
"6  c #FCC1E8",
"7  c #C1EAC1",
"8  c #F1C1D2",
"9  c #B0C1CC",
"0  c #C1F2C2",
"q  c #FFC2FE",
"w  c #C1FDC2",
"e  c #FFA345",
"r  c #393C3A",
"t  c #404240",
"y  c #C23F3C",
"u  c #3A3635",
"i  c #37393E",
"p  c #464A4D",
"a  c #7F5931",
"s  c #C23736",
"d  c #333233",
"f  c #323033",
"g  c #3438C2",
"h  c #3E4356",
"j  c #5D716C",
"k  c #38C556",
"l  c #555B58",
"z  c #507EC1",
"x  c #E8C2FF",
"c  c #C1F7C1",
"v  c #DEC1D7",
"b  c #C1D9B7",
"n  c #9FC1C7",
"m  c #C1F1C1",
"M  c #FFC1FD",
"N  c #C2FCC2",
"B  c #FFC1F7",
"V  c #8E342E",
"C  c #393B3D",
"Z  c #3C3635",
"A  c #343231",
"S  c #32312F",
"D  c #313439",
"F  c #C23569",
"G  c #46282C",
"H  c #2DC22C",
"J  c #C22D2C",
"K  c #2B2CC3",
"L  c #2D2A2E",
"P  c #3B3D52",
"I  c #532EC3",
"U  c #68C269",
"Y  c #6A6C6E",
"T  c #686CC1",
"R  c #C3C1FE",
"E  c #C1FFC1",
"W  c #FAC1E9",
"Q  c #C1E7C1",
"!  c #EAC1DD",
"~  c #C1EFC3",
"^  c #FFC3FE",
"/  c #C1FFC1",
"(  c #F9C1FA",
")  c #C1FFC1",
"_  c #E8B49D",
"`  c #917F6F",
"'  c #72C273",
"]  c #6F6E71",
"[  c #6C645E",
"{  c #5055C2",
"}  c #5D6EC3",
"|  c #323332",
" . c #2FC22E",
".. c #2C2AC2",
"X. c #2B2A2D",
"o. c #373933",
"O. c #3E5C51",
"+. c #2BC365",
"@. c #C26665",
"#. c #636769",
"$. c #75C1CD",
"%. c #C2FFC1",
"&. c #FBC1ED",
"*. c #C1EFC1",
"=. c #E8C1D4",
"-. c #C1E0C1",
";. c #FAC2FF",
":. c #C3FEC1",
">. c #FDC3FF",
",. c #C1D46B",
"<. c #3F3638",
"1. c #413D3F",
"2. c #413F3D",
"3. c #393A3D",
"4. c #3E3B50",
"5. c #585D76",
"6. c #403738",
"7. c #393835",
"8. c #C23331",
"9. c #2F3033",
"0. c #343540",
"q. c #433E4A",
"w. c #685D34",
"e. c #C356C2",
"r. c #57565C",
"t. c #5A5170",
"y. c #C1D5C1",
"u. c #FFC1FE",
"i. c #C1F2C1",
"p. c #DCC1D2",
"a. c #C1CEC1",
"s. c #C7C1E1",
"d. c #C2FFC1",
"f. c #FDC3FC",
"g. c #C1FAC3",
"h. c #FFBC53",
"j. c #2E2A2C",
"k. c #333739",
"l. c #3B3836",
"z. c #3433C2",
"x. c #322B39",
"c. c #3D3F5C",
"v. c #2B2F2E",
"b. c #2F2D2C",
"n. c #C22D2B",
"m. c #29C22B",
"M. c #C22C35",
"N. c #342C34",
"B. c #544F2D",
"V. c #6768C3",
"C. c #696A6E",
"Z. c #6C6668",
"A. c #BAC1FB",
"S. c #C2FFC1",
"D. c #F0C1DD",
"F. c #C1DAC1",
"G. c #E9C3FF",
"H. c #C4FEC1",
"J. c #FAC5FF",
"K. c #C1DAA0",
"L. c #79C265",
"P. c #6A6C69",
"I. c #68635F",
"U. c #596545",
"Y. c #394570",
"T. c #5C32C3",
"R. c #37C238",
"E. c #373632",
"W. c #2E2C28",
"Q. c #2A2C2F",
"!. c #C23D31",
"~. c #42452F",
"^. c #6465C3",
"/. c #666563",
"(. c #686C77",
"). c #C1C6C1",
"_. c #FEC2FF",
"`. c #C1F7C1",
"'. c #E3C1D7",
"]. c #C1DEC1",
"[. c #F5C1FD",
"{. c #C1FFC4",
"}. c #FEC1FF",
"|. c #C1FDC1",
" X c #F8C1FE",
".X c #C1FFC1",
"XX c #FEC1C3",
"oX c #754836",
"OX c #33393F",
"+X c #C23E41",
"@X c #44475D",
"#X c #464349",
"$X c #706039",
"%X c #C23DC2",
"&X c #3E3CC2",
"*X c #3B3733",
"=X c #31C22E",
"-X c #313244",
";X c #4A3FC2",
":X c #503955",
">X c #56C357",
",X c #565C5A",
"<X c #536FC1",
"1X c #CDC1FF",
"2X c #C1FDC1",
"3X c #F2C1E1",
"4X c #C1C3C1",
"5X c #C1C1DE",
"6X c #C1FAC1",
"7X c #FFC5FC",
"8X c #C1FDC2",
"9X c #FFC1FE",
"0X c #C1FFC1",
"qX c #EBAC5D",
"wX c #312229",
"eX c #30C234",
"rX c #3237C2",
"tX c #35472F",
"yX c #272B52",
"uX c #472735",
"iX c #333433",
"pX c #353635",
"aX c #312D2B",
"sX c #282A2C",
"dX c #2F3D38",
"fX c #283C44",
"gX c #306467",
"hX c #686968",
"jX c #6B6E6C",
"kX c #C264C1",
"lX c #C3C1FE",
"zX c #C2FFC1",
"xX c #F2C1D1",
"cX c #C1C6C1",
"vX c #F0C1FF",
"bX c #C7FEC1",
"nX c #FBC1F9",
"mX c #C1FDC4",
"MX c #FFC1F8",
"NX c #C1E5C1",
"BX c #D16858",
"VX c #5D5C56",
"CX c #514D5E",
"ZX c #403D47",
"AX c #696046",
"SX c #C23A38",
"DX c #C2393B",
"FX c #C23A39",
"GX c #37302C",
"HX c #2BC229",
"JX c #363938",
"KX c #3B2FC2",
"LX c #646765",
"PX c #666564",
"IX c #686B77",
"UX c #C1D0C3",
/* pixels */
"    # . @ @ X @     # o O O +       # o O + # O     # o + O @ X     # o + O o @     # o + O X +     # o + O   O     # o + O O o     # o + O ",
"    #   # # o .     # . @ @ X @     # o O +   +     # o O + . #     # o + O   X     # o + O         # . @ # o X     # o + O   @     # o + O ",
"    #   # #         #   # o O @     # . @ @ X X     # . @ X @ +     # . @ X .       # . @ X + X     # . @ X O O     # . @ X + O     # . @   ",
"    #   # # O @     #   # @ + #     #   # # . @     #   # o . #     #   o + # +     #   # . X o     #   # . @       #   # . @       #   # . ",
"    # O o o @ X     # O o X # o     # O o o o       #   # # X +     #   # . X #     #   # . @ O     #   #   + #     #   + X X X     #   #   ",
"    # X + + +       #   # # o #     # X + + + o     # o O O + X     # o O O . +     # . @ @ o o     # . @ X + X     #   # . @ +     #   # + ",
"    # o O O o @     # o O @ . +     # o O + @ o     # # . X X +     # # . X X +     # o + O #       # o + O   O     # . @ @ o .     # #     ",
"    # # X . + .     # # X . + .     # # o O   o     # # o + X O   . @ @ @ X   X   . @ @ @   o     . @ @ X O   #     # # . o @ #     # # . # ",
"    # # o   O @     # # o O X .     # # # o o     . @ @ @ X @ o   . @ @ @ o @ X   o O O O + . X   o O O O . O o   o O O O . O .   . @ @ @ o ",
"    # #   o o @     # # X . . O     # # # o   o   o O O O   + O   o O O O + + @   o O O + O @ X   o O O + O @ X   o O O + @ .     o O O . + ",
"    # #     o o     # #   o   #     # # o   O O     # # o # O .   o O O O . X @   o O O O # # o   o O O #   + @   o O O o + O o   o O O . @ ",
"    # o O O   +     #   # # o .     # o O + @ @     # # o   O X     # # o # o @   o O O O o + +   o O O # . o o   o O O o + X o   #   # . @ ",
"    # # o   . O     # o O + o @     # o O   + +     # o O # . .     # # o . @ X   o O O . O O o   o O + @ . o O   o O + @ . O     # # O   . ",
"  o O O   +   O   . @ @ X X O #     # o + @ o +     # o O . X .     # o + @ + @   . @ @ X # + @   o O +   # @ X   o O +   # # +   # O o + o ",
"  o O O # . + #   o O O + o @ o   o O O   + . O     # # o . . o     # # . o X .   . @ @ @ X   o   o O O . #   #   o O . O @ + .   #   + X o ",
"  o O + @ # # +   o O + @ # + @   o O + @   O X   o O O . O o .   . @ @ X o . O   o O O   + O +   o O O . # X @   o O . O @ # o   #   + X o ",
"  #   o .   . +   #   . o X o #   o O + # @ O #   o O + @ . @     o O + O o X @   o O O + # o X   o O + @   o O   o O + X + o o   #   # . O ",
"  o O + # @ # .   o O + # @ #     o O + # @ o +   o O + # @   X   o O + # @ .     o O + @ + # #   o O + # @       o O + # X .     #   . X # ",
"  o O + # @ . .   o O + # @ . .   o O + # #       o O + #   O #   o O + #   # @   o O + # @ + .   o O + # # . X   o O # + + .     #   . o X ",
"  o O + #   # o   o O + #   # o   o O + #   @ o   o O + #     #   o O + #   # o   o O + # + X .   o O + # + o X   o O + # o # @   o O + # o ",
"  o O + o + @ @   o O + o + @ X   o O + o + @ X   o O + o # O +   o O + # o   +   o O + # o O +   o O + # # . @   o O # + +   +   o O # + + ",
"  o O + # o + X   o O + # o + X   o O + # o + X   o O + # o + X   o O + # o + X   o O + o # + +   o O + # o o O   #   . X o o O   # . @ @   ",
"  o O + # # o #   o O + # # # #   o O + # # # o   o O + # # o #   o O + # # o #   o + @   O O O   o O + # o   O   # O o o . o # O o # o o o ",
"  o O + # @ . #   #   o . . . .   #   o . . # .   # . X     @ O   # . X     X     #   . o o @ X   # + X X   . # O o o # O o # o O o # # @ o ",
"@ #   .   .   @ @ #   . .     # @ #   . . . . # @ # .       . @ @ # .         @ @ # .     . . @ @ # . . .   . # @ # . .   .   @ @ #   . . . ",
"# #           # # #           # # #           # # #           # # #           # # #           # # #           # # #           # # #         ",
"# #           # # #           # # #           # # #           # # #           # # #           # # #           # # #           # # #         ",
"# #         O o # #         O o # #         O o # #         O o # #         O o # #         O o # #         O o # #         O o # #         ",
"# #           # # #           # # #           # # #           # # #           # # #           # # #           # # #           # # #         ",
"#       O X X X . @ @   X O X O . @ @   X O X   . @ @ @ X O   @ . @ @     @ X @ . @       X   O .   @ @ X @   @ .   @ @ X X   O . X O O     ",
"  # # + O @ X @   #   # . o #     # . o + . X X . @ . # o     @ . # # @ o . O @ o + + + + + . . . # . @ # o # . . . @ X + @ X + .   # o . o ",
"  # + o # . #     #   o # + X X   # . o   @ X X . #   @ . + # o . # #   O o # + o + + O + # + # o + + + + . + X . . @ X @ + X # .   # o o   ",
"  # . #   X # o   # . X @ X X X   # . X X o @ @ . @ . @ . o o X . # + X o . @ O . # # . @ X # . . #   . o   X o . . @ X . @ @ o . . @ X o @ ",
"  #   o o # + @   # . X @ o . @   # . X o @ . O . @   X o   O @ . # . @   . o O . . # @ # @ . # . . @ o + . O O . . @ o . @ # o . . @ o   @ ",
"  # . X # X O O   # . X # @ #     # . o # # # # . X + O @ + X o . . @ o + @ O X . . # X O   + + . . # X O X +   . . @ o X + . . . . @ X o @ ",
"  # o   + @ + O . @   X # O @ O . @ . X . + @ + .   # X # + o   . . @ X + X + + . . # X O @ @ # . . @ o + # # X . . @ o O o # . . . @ o @   ",
"  #   o # # # # . @ X + O . . @ . #   . @ O X . . . @ #   X . . .   # o @ o . # . . @ X # . @ . . . @ o #   + @ . . @ o @ . O . . . @ o O o ",
"  o O O @ O # .   o O + @ o O # . @ . o @ + + O . # .   . # + . . . @ X # O X   . . @ X   @ o # . . @ o @   . O . . @ o @   X + . . @ o @   ",
"  X + +   . X #   X + . + . o # . @   o X + #   . # . @ @ o . @ . # . . @ O X O . . @ @ o . o o . . @ X #   O @ . . @ @ o o .   . . @ # X X ",
"  X + . . O O @ . @     X . X X . + X X X X X   . #   . # @ @ O . # # . @ + . # . #   . # o #   . o O + O O X o . o O + O @ + # . #   . o   ",
"  o O     O   +   o + + @ @ . X . @   . . o O @ . @ .   . . # O . #     @ @ @ o . #     # @ . . . #   .     # X . o O O + . . + . o O O + X ",
"  # # o # . @ o     # o @ o # +     # o @ X . .     # o # # O @     # o # + # o   o O + . + o O . @ .   X +   + . #   .   +   # . . @ # # @ ",
"# # . # X #   @ o O + @ O O   X   o O O X   # .     # o @ o @ #     # # . X # X     # X +   + O   . @ # # @ # X . # @ @ # # @ # . #   @ o + ",
"# # # o # # # # # # o X + O o X o O @ + + # @ #   o O O o X o #     # o + o X +   #     o + + . #     # o + + @ # # # o   O + O # # o + . O ",
"# # # o # @   O # # # o # # o # # # . X X . X X   # o + X @ # O   o O O @ O X . #     o O # # X # # # .   @ o + # # # # # o + + # # # # # # ",
"# # # # o   @ O # # # o # # # # # o O # #   . X   # o #   O @ @   # # X # . # o # #     # X   @ # # # # # # o . # # # # # # o # # # # # # # "
};
