/* XPM */
static char *id_002659_output[] = {
/* columns rows colors chars-per-pixel */
"6 46 1 1 ",
"  c #B5817E",
/* pixels */
"LgUUGG",
"Uy21>U",
"UPUUBo",
"_=:Whi",
"at0751",
";=&*->",
">*a<fc",
"xcxzzz",
"llvbGT",
"JQU[.n",
"=====*",
":<*ttU",
"UPkhB9",
"[3CUUI",
"IUUK:U",
"+}Au23",
"31;=3,",
";**&#o",
"u/gxcx",
"zklkjj",
"fkvvML",
"YX}j==",
"=--;><",
"=>*IUJ",
"czvpNU",
"UUIIIU",
"HJUx[H",
"mu1455",
"1<3>$X",
"^`..<v",
"vvbvzl",
"ljghhg",
"kNVbD ",
"/h*=--",
"-;<>&=",
"XKUUBp",
"ycUUUI",
"IIIJUU",
"UUUyLq",
"%%;>-=",
"#o{%PV",
"P2 vNN",
"NBBNMv",
"ljdgjz",
"SScJPz",
"$*=-=:"
};
