/* XPM */
static char *id_004438_output[] = {
/* columns rows colors chars-per-pixel */
"70 14 2 1 ",
"  c black",
". c white",
/* pixels */
"...   . .    . .   ..    . ....... . ... . ......... . .   . .  .  . .",
"   ..      . . .        . .   .. .... .    . . . .        ...    . ...",
".   . ..   . ..    . ..  .. ... .   . ..  .  . ....   .     . . .  ...",
"                 .. .. .     .  .  ..  .  ...  . ..  .  . ... ......  ",
" . ..   . .  .. .     ...     ...   . .. ..    ... . .  .... ... ..   ",
" ....... ..    . ..    ... ...   .  . .. ...       . ..   ...   .   . ",
"   . .. .... .... ..     ....... ..    .... . . . . ... . ..     .....",
" .    .... . .   .    ....... ..... . . .    . ....  .  ... ..  . .   ",
".. . ...  ... ...  .....   . .  ...  .. . . ....                ..... ",
"  . . ..... .  ..    .    .  ...   ..  ...   . ...   . . . ...  .... .",
".  .  .   . .  ..   . ..  .  . .  .    .   .  ..    .                 ",
". .   ..    .   .....      . . ..   ...  .... ....   . .  . .  ..  .  ",
"  ...   ...  .. . ...... . ...     .. . .  .. .  ........  .  .  ..   ",
".. ...    .. .    .. .  . . .  ... ...   ................. . .  .   . "
};
