/* XPM */
static char *id_003587_output[] = {
/* columns rows colors chars-per-pixel */
"70 46 256 2 ",
"   c #5355C3",
".  c #57565C",
"X  c #5A526F",
"o  c #C1D9C1",
"O  c #FFC1FC",
"+  c #C1F2C1",
"@  c #E0B6B3",
"#  c #C1EEC1",
"$  c #FFC1FC",
"%  c #C1FAC4",
"&  c #FCC1FF",
"*  c #C1FCC1",
"=  c #F5C1FA",
"-  c #C3FFC1",
";  c #FEC1E4",
":  c #C1C8A7",
">  c #3B2C32",
",  c #343A37",
"<  c #384B30",
"1  c #2A2B4A",
"2  c #44C335",
"3  c #343538",
"4  c #3B393A",
"5  c #383632",
"6  c #2CC22E",
"7  c #293233",
"8  c #31382E",
"9  c #5C5F67",
"0  c #69C26C",
"q  c #6B6865",
"w  c #7CC1C8",
"e  c #C1F5C1",
"r  c #F7C1EE",
"t  c #C1DDC2",
"y  c #C9C1E9",
"u  c #C1FEC2",
"i  c #FDC1FE",
"p  c #C5FFC1",
"a  c #FEC1FC",
"s  c #C1F6C2",
"d  c #FEC1FD",
"f  c #C2FFC1",
"g  c #E96D52",
"h  c #555350",
"j  c #4C4845",
"k  c #4C5D61",
"l  c #565755",
"z  c #4D433C",
"x  c #C238C2",
"c  c #393A3B",
"v  c #3C3B39",
"b  c #3536C2",
"n  c #473A40",
"m  c #483467",
"M  c #696B68",
"N  c #666766",
"B  c #676C8A",
"V  c #C1D2C2",
"C  c #FAC1EE",
"Z  c #C1DAC1",
"A  c #C0BEC1",
"S  c #E0C1FA",
"D  c #C4FEC2",
"F  c #FDC1FC",
"G  c #C1FDC1",
"H  c #FEC1F8",
"J  c #C1ECC1",
"K  c #FAC4FF",
"L  c #C1E667",
"P  c #4BC24F",
"I  c #4EC24F",
"U  c #4E53C2",
"Y  c #655654",
"T  c #524942",
"R  c #3F4143",
"E  c #C24142",
"W  c #43C245",
"Q  c #403D44",
"!  c #60624D",
"~  c #525C42",
"^  c #4F5257",
"/  c #C25859",
"(  c #5BC259",
")  c #86C1D9",
"_  c #C1FAC1",
"`  c #F0C1DC",
"'  c #C1C6AE",
"]  c #B6C1E6",
"[  c #C1FFC3",
"{  c #FEC1FC",
"}  c #C1FBC1",
"|  c #F9C1FC",
" . c #C1FDC1",
".. c #FCC1F4",
"X. c #C1E8C1",
"o. c #FBC1FD",
"O. c #C1FFC1",
"+. c #FCC1EE",
"@. c #C1CD4B",
"#. c #2D3233",
"$. c #343635",
"%. c #2E3040",
"&. c #463D3C",
"*. c #3936C4",
"=. c #353736",
"-. c #37383C",
";. c #3A3536",
":. c #2F353C",
">. c #383A41",
",. c #310000",
"<. c black",
"1. c black",
"2. c black",
"3. c black",
"4. c black",
"5. c black",
"6. c black",
"7. c black",
"8. c black",
"9. c black",
"0. c black",
"q. c black",
"w. c black",
"e. c black",
"r. c black",
"t. c black",
"y. c black",
"u. c black",
"i. c black",
"p. c black",
"a. c black",
"s. c black",
"d. c black",
"f. c black",
"g. c black",
"h. c black",
"j. c black",
"k. c black",
"l. c black",
"z. c black",
"x. c black",
"c. c black",
"v. c black",
"b. c black",
"n. c black",
"m. c black",
"M. c black",
"N. c black",
"B. c black",
"V. c black",
"C. c black",
"Z. c black",
"A. c black",
"S. c black",
"D. c black",
"F. c black",
"G. c black",
"H. c black",
"J. c black",
"K. c black",
"L. c black",
"P. c black",
"I. c black",
"U. c black",
"Y. c black",
"T. c black",
"R. c black",
"E. c black",
"W. c black",
"Q. c black",
"!. c black",
"~. c black",
"^. c black",
"/. c black",
"(. c black",
"). c black",
"_. c black",
"`. c black",
"'. c black",
"]. c black",
"[. c black",
"{. c black",
"}. c black",
"|. c black",
" X c black",
".X c black",
"XX c black",
"oX c black",
"OX c black",
"+X c black",
"@X c black",
"#X c black",
"$X c black",
"%X c black",
"&X c black",
"*X c black",
"=X c black",
"-X c black",
";X c black",
":X c black",
">X c black",
",X c black",
"<X c black",
"1X c black",
"2X c black",
"3X c black",
"4X c black",
"5X c black",
"6X c black",
"7X c black",
"8X c black",
"9X c black",
"0X c black",
"qX c black",
"wX c black",
"eX c black",
"rX c black",
"tX c black",
"yX c black",
"uX c black",
"iX c black",
"pX c black",
"aX c black",
"sX c black",
"dX c black",
"fX c black",
"gX c black",
"hX c black",
"jX c black",
"kX c black",
"lX c black",
"zX c black",
"xX c black",
"cX c black",
"vX c black",
"bX c black",
"nX c black",
"mX c black",
"MX c black",
"NX c black",
"BX c black",
"VX c black",
"CX c black",
"ZX c black",
"AX c black",
"SX c black",
"DX c black",
"FX c black",
"GX c black",
"HX c black",
"JX c black",
"KX c black",
"LX c black",
"PX c black",
"IX c black",
"UX c black",
/* pixels */
"    # . @ @ X @     # o O O +       # o O + # O     # o + O @ X     # o + O o @     # o + O X +     # o + O   O     # o + O O o     # o + O ",
"    #   # # o .     # . @ @ X @     # o O +   +     # o O + . #     # o + O   X     # o + O         # . @ # o X     # o + O   @     # o + O ",
"    #   # #         #   # o O @     # . @ @ X X     # . @ X @ +     # . @ X .       # . @ X + X     # . @ X O O     # . @ X + O     # . @   ",
"    #   # # O @     #   # @ + #     #   # # . @     #   # o . #     #   o + # +     #   # . X o     #   # . @       #   # . @       #   # . ",
"    # O o o @ X     # O o X # o     # O o o o       #   # # X +     #   # . X #     #   # . @ O     #   #   + #     #   + X X X     #   #   ",
"    # X + + +       #   # # o #     # X + + + o     # o O O + X     # o O O . +     # . @ @ o o     # . @ X + X     #   # . @ +     #   # + ",
"    # o O O o @     # o O @ . +     # o O + @ o     # # . X X +     # # . X X +     # o + O #       # o + O   O     # . @ @ o .     # #     ",
"    # # X . + .     # # X . + .     # # o O   o     # # o + X O   . @ @ @ X   X   . @ @ @   o     . @ @ X O   #     # # . o @ #     # # . # ",
"@ @ . . .     @ @ @ . . .     # @ @ . . . . . @ @ #           # @ #       .   @ @ #       . . @ @ #       .   # @ #       .   # @ #       . ",
"o #   O     O # o o O O O     # o o O O O   O o o o O O O O O o o o O O O O O # o o O O O O O # o #           # o #           # o #         ",
"  #   + . # # #     # #   @ # +     # # O o X       # # # @   @   @ . . .   o     @ . . . X o O   @ . . o . O O   @ . . o   + O   @ . . o O ",
"  # + O X # . +     # #     @ #     # #   @   #     # # #           # # # @ . o   @ . . . o + +   @ . . . # # @   @ . . # . o O   @ . . # o ",
"+ X @ O X @ X +     # #       X     # . @ @ @ o     # #   X + +     # # @ . . O     # # # @ @ +   @ . . . # o X   @ . . # X # #   @ . . @ o ",
"# O # o +   + O     # @ # . X .     # @ . o @ O     # @ . . o o     # #   @ o X     # # @ o O +   @ . . o   . #   @ . o + X @     @ . o O o ",
"# # # O + o   +   @ . .   X   .   X + O + +   #     # @ o O # o     # @ . o O X     # # X O o O   X + + O # o O   @ . o . @ O +   @ . o . @ ",
"# # # + # X # +   @ . . @ o X #   @ . . X @ + #   @ .   . o X .     # @ # X X @     # @ o # + o   X + + O + . #   @ . . X # . @   @ . o   + ",
"# # # + # +   @   @ . o + @ # o   @ . o + @ o O   @ . o O .   +   @ . . X   @ X   X + + O @ X     @ . . . X   X   @ . . X # O +   @ . X . + ",
"# # # + o   #     @ . # o . o o   @ . o # + # #   @ . o # O . @   @ . o O o O     @ . o   @ O +   @ . . X # # +   @ . o O . @ .   @ . X + o ",
"# # . @ # @   @   #   X @ O @ o   #   X @ O @ .   @ . o # + # o   @ . o # O . O   @ . o # O X .   @ . o + o @ @   @ . o # O   .   @ . o @ + ",
"# #     . @ . #   @ . o # + o X   @ . o # + o X   @ . o # #   .   @ . o # .   @   @ . o # . @ O   @ . o # + o o   @ . o # # X O   @ . # o X ",
"# O o o   . @ #   @ . o # . @ @   @ . o # . @ @   @ . o # . O @   @ . o #   . #   @ . o #   # #   @ . o # o + X   @ . o # o @ O   @ . o # # ",
"#   o # o # # .   @ . o # X + O   @ . o # X + O   @ . o # X + O   @ . o # @   o   @ . o # @ . X   @ . o # #   X   @ . o # # X O   @ . # o X ",
"o O + X O # X X   @ . o @ # o +   @ . o @ # o O   @ . o @ # o O   @ . o @ # o +   @ . o # @ X +   @ . o # @ o o   @ . o # # @ .   @ . o + # ",
". @ @     @ o @   @ . o # @ # @   @ . o # @ # @   @ . o # @ # @   @ . o # @ # @   @ . o # @ # @   @ o +   . . .   @ . o # @   .   #   @ @ X ",
"  # . o + o X O   @ . o # + X #   @ . # o o o o   @ . # o o # X   @ o + . . O .   @ o + . . O .   @ . o @ # + +   @ o + +   X #   # # @   @ ",
"  + o @ O X O +   @ . o + o   .   #   X @ O   X   #   @ X X # X   # X O   O # .   # X O     O O   # X O O @ o O   # # @ @   X # . @ @ # + X ",
"  # + .   X + .   @ . . . X O     @ . . o + X O   #   X @ @ . O   # X O   . O O   @ o + + # + #   # # @ X O o   . @ @ # . . o X . @ . # @ # ",
"  # + . . # + +     # #   # + O     # # # . @     @ . . o # o X   @ . o + # o     # @ . . @ X @ . @ @ . @ X O . . @ . @   . . # . @ . @ @ O ",
". @ O   + X @ #     # O o . X .     # + X . X X     # # o O + #   @ . . . o O #   # . @ # + X   . @   # @ @   + . @   @ #   # X . @ # @ @ + ",
". @ O + X   X .     # O X o #       #   # O # o     # #   .   +     # # # + X +   # .   # @ O + . @   @ X + + . . @ @ . # # X   # .   o O + ",
". @ O # . O + .   X + O O + +       # @ # @ X O     # @ # @ . +   @ . .   O   @   #     # # . O   # . @ . #   o . @ @ . . o + # # . .   . X ",
". @ + @   o X +   @ . o O @   @   @ . o O # X O   @ . o O @ #     @ . @ . X o     @ . # o X +     # X O   O O +   # o O O . o + . @ # . X o ",
". @ O o . o o o   @ o + + . # X   @ o + + o + #   @ o + + o + #   @ o + + o O +   # X O O X + #   # X O O @ # @   # X O # O + +   # o O + @ ",
". @ O   o   o .   # X O # O + +   # @   o   . o   # @   o   . o   # @   o .   X   # X O # + O +   # @   o   # X   # @   o   @     # @   o . ",
". @ O   o X O     # @ . X     X   # @ . X     o   # @ . X     o   # @ . X   X +   # @ . X   X O   # X + @ + @ @   # X + @ O # #   # @ . X   ",
". @ O   o X   @   # @ . X     o   # @ . X     o   # X + @ O O +   # @ . X X + O   # @ . X   @ o   # @ . o X + X   # @ . o o + .   # @ . X # ",
". @   O @ +   o   # @ . X     o   # @ . X   X +   # @ . X X O     # @ . X . X O   # @ . X   o +   # @ . X . # o   # @ . X . @ o   # @   o . ",
". @   O O X X X   # @ . X     +   # @ . X   + X   # @ . X + X     # @ . X   + X   # @ . X   + X   # @ . X   # .   # @ . X   # o   # @ . X   ",
"  # . + . # @ @   # @ . X   O .   # @ . X   + X   # @ . X   # #   # @ . X   + X   # @ . X   + X   # @ . X   # .   # @ . X   # o   # @ . X X ",
"  # . + X . . +   # @ . X   + O   # @ . X   + O   # @ . X   + +   # @ . X   + O   # @ . X   + O   # @ . X   # +   # @ . X X + +   # @ . X # ",
"  # .   . X + @   # @ .   @ o o   # @ .   @ o o   # @ .   @ o o   # @ .   @ o o   # @ .   @ o .   # @ . X   + #   # @ . X o O O   # @ . X # ",
"  . @ # X + o X   # @ . X O . +   # @ . X O . O   # @ . X O . O   # @ . X O . O   # @ . X O . O   # @ . X O . @   # @ . X + X o   # @ . X # ",
"  . @ X O #   X   # @ . X + . O   # @ . X + . +   # @ . X + . +   # @ . X + . +   # @ . X + . +   # @ .   # o @   # @ . o O o X   # @ . X # ",
"    # . # X @ O   # @ . X + . O   # @ . X + . O   # @ . X + . O   # @ . X + + X   # @ . X + + X   # @ . X + X +   # @ . o X + +   # @ . o @ ",
"    # . @ # O @   # @ .   # o X   # @ . X + . O   # @ . X + + X   # @ . X + + o   # @ . X + + o   # @ . X + o O   # @ . o o @ O   # @ . # X ",
"    # o + O O +   # @ .   #   .   # @ .   # o X   # @ . X + + +   # @ . X + . #   # @ . X + + .   # @ . X + o @   # @ . o # X     # @ . # X "
};
