#define id_004438_output_width 70
#define id_004438_output_height 14
static char id_004438_output_bits[] = {
  0xB8, 0x5E, 0xE7, 0x05, 0x14, 0x05, 0x50, 0xD7, 0x16, 0xE7, 0x57, 0xFF, 
  0x3A, 0xA1, 0x57, 0xFD, 0xE3, 0x05, 0x2E, 0x97, 0x97, 0x89, 0x2E, 0x5B, 
  0xB8, 0xAF, 0x06, 0xFF, 0xFF, 0x49, 0xDF, 0x66, 0x63, 0xD9, 0x22, 0x30, 
  0xE5, 0x9A, 0x3E, 0x3E, 0x2E, 0x79, 0xD4, 0x10, 0x39, 0x01, 0x79, 0x79, 
  0xC4, 0x2D, 0xF1, 0x97, 0xE3, 0x2E, 0x97, 0x10, 0xF2, 0x01, 0x79, 0xA8, 
  0x8A, 0xF2, 0x01, 0x3D, 0xD4, 0x3D, 0x20, 0xA8, 0x5E, 0xD8, 0xC8, 0x3A, 
  0x14, 0x23, 0x06, 0xD7, 0x98, 0x0A, 0xFF, 0xFF, 0x20, 0x2B, 0x68, 0xDE, 
  0x1B, 0x67, 0x5C, 0x5C, 0xC5, 0x10, 0xB6, 0x6B, 0x2E, 0x5B, 0x7B, 0x37, 
  0xEF, 0xFF, 0x3F, 0x3A, 0xEF, 0xE0, 0x57, 0x8E, 0x21, 0x5C, 0x6B, 0x36, 
  0xE3, 0x98, 0x02, 0xC5, 0xA7, 0xA6, 0x01, 0xB6, 0x39, 0xC4, 0xD3, 0xD3, 
  0x6A, 0xC4, 0x01, 0x00, 0xD4, 0x2E, };
