#define id_001272_output_width 3
#define id_001272_output_height 32
static char id_001272_output_bits[] = {
  0x07, 0x07, 0x07, 0x07, 0x07, 0x07, 0x07, 0x03, 0x06, 0x07, 0x07, 0x06, 
  0x07, 0x07, 0x07, 0x07, 0x07, 0x07, 0x07, 0x07, 0x07, 0x07, 0x07, 0x07, 
  0x07, 0x05, 0x07, 0x07, 0x07, 0x05, 0x05, 0x04, };
