/* XPM */
static char *id_001228_src_001186_op_havoc_rep_32_gif_output[] = {
/* columns rows colors chars-per-pixel */
"1 32 4 1 ",
"  c #00F103",
". c black",
"X c #00FF08",
"o c #0808F9",
/* pixels */
" ",
" ",
" ",
" ",
" ",
" ",
" ",
" ",
" ",
" ",
" ",
" ",
" ",
" ",
" ",
" ",
" ",
"o",
" ",
" ",
" ",
" ",
" ",
" ",
" ",
" ",
" ",
" ",
" ",
" ",
" ",
" "
};
