/* XPM */
static char *id_003066_sync_slave1_src_003057_output[] = {
/* columns rows colors chars-per-pixel */
"1 13 2 1 ",
"  c None",
". c blue",
/* pixels */
".",
" ",
" ",
" ",
" ",
" ",
" ",
" ",
" ",
" ",
" ",
" ",
" "
};
